<svg xmlns="http://www.w3.org/2000/svg" width="138" height="33" viewBox="0 0 138 33">
  <metadata><?xpacket begin="﻿" id="W5M0MpCehiHzreSzNTczkc9d"?>
<x:xmpmeta xmlns:x="adobe:ns:meta/" x:xmptk="Adobe XMP Core 5.6-c140 79.160451, 2017/05/06-01:08:21        ">
   <rdf:RDF xmlns:rdf="http://www.w3.org/1999/02/22-rdf-syntax-ns#">
      <rdf:Description rdf:about=""/>
   </rdf:RDF>
</x:xmpmeta>
                                                                                                    
                                                                                                    
                                                                                                    
                                                                                                    
                                                                                                    
                                                                                                    
                                                                                                    
                                                                                                    
                                                                                                    
                                                                                                    
                                                                                                    
                                                                                                    
                                                                                                    
                                                                                                    
                                                                                                    
                                                                                                    
                                                                                                    
                                                                                                    
                                                                                                    
                                                                                                    
                           
<?xpacket end="w"?></metadata>
<defs>
    <style>
      .cls-1 {
        fill: #1a1a1a;
        fill-rule: evenodd;
      }
    </style>
  </defs>
  <path id="Radario_Logo" data-name="Radario Logo" class="cls-1" d="M973.813,482.008A7.048,7.048,0,1,0,981,489.055,7.118,7.118,0,0,0,973.813,482.008Zm2.361,5.377-0.406.679a0.609,0.609,0,0,1-.365.268,0.664,0.664,0,0,1-.437-0.055l-0.063-.043a1.192,1.192,0,0,0-.326-0.23,0.9,0.9,0,0,0-.579-0.035,0.618,0.618,0,0,0-.171.1,0.993,0.993,0,0,0-.164.171c-0.047.061-.093,0.128-0.14,0.2v3.1a0.568,0.568,0,0,1-.147.409,0.592,0.592,0,0,1-.445.158h-1a0.534,0.534,0,0,1-.583-0.567v-4.9a0.567,0.567,0,0,1,.2-0.427,0.7,0.7,0,0,1,.39-0.127h0.674a0.48,0.48,0,0,1,.258.066,0.524,0.524,0,0,1,.152.144,0.848,0.848,0,0,1,.083.155,0.573,0.573,0,0,0,.046.093c0.013,0.025.028,0.06,0.05,0.116l0.012,0.031a3.115,3.115,0,0,1,.278-0.314,1.528,1.528,0,0,1,.365-0.264,1.658,1.658,0,0,1,.986-0.075,2.19,2.19,0,0,1,.4.115,2.511,2.511,0,0,1,.375.192c0.115,0.073.241,0.157,0.375,0.254a0.508,0.508,0,0,1,.268.315A0.58,0.58,0,0,1,976.174,487.385ZM855.7,501.772l1.34-2.237a1,1,0,0,0,.186-0.755,0.848,0.848,0,0,0-.467-0.476c-0.469-.332-0.864-0.6-1.222-0.822a6.821,6.821,0,0,0-1.073-.551,5.966,5.966,0,0,0-1.138-.325,7.679,7.679,0,0,0-1.377-.112,2.615,2.615,0,0,0-1.206.26,3.981,3.981,0,0,0-.956.692,9.34,9.34,0,0,0-.84.951c-0.266.347-.557,0.692-0.864,1.026l-0.284.308-0.286-.7c-0.065-.16-0.133-0.331-0.2-0.511l-0.191-.493c-0.055-.137-0.091-0.225-0.109-0.261a3.252,3.252,0,0,1-.208-0.422,1.6,1.6,0,0,0-.165-0.313,0.647,0.647,0,0,0-.2-0.187,0.567,0.567,0,0,0-.3-0.061h-2.231a1.209,1.209,0,0,0-.653.2,0.822,0.822,0,0,0-.178.25,0.783,0.783,0,0,0-.085.358v16.213a0.747,0.747,0,0,0,.887.854h3.325a1,1,0,0,0,.715-0.2,0.922,0.922,0,0,0,.2-0.654V503.244l0.04-.063c0.214-.338.427-0.647,0.633-0.917a4.535,4.535,0,0,1,.707-0.739,3.045,3.045,0,0,1,.869-0.494,3.248,3.248,0,0,1,1.105-.175,3.9,3.9,0,0,1,1.611.32,4.947,4.947,0,0,1,1.334.924,1.124,1.124,0,0,0,.716.1A0.946,0.946,0,0,0,855.7,501.772Zm20.866-4.87a0.529,0.529,0,0,0-.272-0.152,1.874,1.874,0,0,0-.333-0.039h-2.2a1.987,1.987,0,0,0-.4.031,0.289,0.289,0,0,0-.145.075,0.859,0.859,0,0,0-.149.249c-0.062.149-.144,0.343-0.241,0.582l-0.735,2.239-0.307-.433a10.838,10.838,0,0,0-.888-1.089,6.628,6.628,0,0,0-1.094-.948,5.551,5.551,0,0,0-1.333-.67,4.845,4.845,0,0,0-1.594-.253,9.478,9.478,0,0,0-3.665.712,9.16,9.16,0,0,0-4.973,4.89,9.083,9.083,0,0,0-.731,3.643,9.281,9.281,0,0,0,.331,2.489,9.07,9.07,0,0,0,.94,2.218,9.262,9.262,0,0,0,1.459,1.867,9.169,9.169,0,0,0,1.889,1.437,9.333,9.333,0,0,0,2.242.922,9.536,9.536,0,0,0,2.508.324,3.671,3.671,0,0,0,1.322-.236,5.964,5.964,0,0,0,1.181-.6,7.834,7.834,0,0,0,1.007-.791q0.471-.441.868-0.83l0.288-.284,0.576,1.462c0.061,0.169.117,0.32,0.17,0.457a1,1,0,0,0,.159.284,0.5,0.5,0,0,0,.207.149,1.078,1.078,0,0,0,.4.058h2.91a1.738,1.738,0,0,0,.333-0.038,0.466,0.466,0,0,0,.248-0.131,0.56,0.56,0,0,0,.235-0.266,1.008,1.008,0,0,0,.071-0.375V497.524a0.9,0.9,0,0,0-.067-0.362A0.665,0.665,0,0,0,876.57,496.9Zm-5.191,10.726a4.641,4.641,0,0,1-1.042,1.527,4.988,4.988,0,0,1-3.5,1.393,4.517,4.517,0,0,1-1.862-.378,4.426,4.426,0,0,1-1.439-1.025,4.52,4.52,0,0,1-.916-1.53,5.614,5.614,0,0,1,0-3.731,4.774,4.774,0,0,1,.913-1.561,4.321,4.321,0,0,1,3.3-1.467,4.843,4.843,0,0,1,1.948.392,4.908,4.908,0,0,1,2.6,2.623A4.892,4.892,0,0,1,871.379,507.628ZM897.7,491.371a0.924,0.924,0,0,0-.313-0.064h-3.325a0.853,0.853,0,0,0-.666.231,0.872,0.872,0,0,0-.221.61v7.282l-0.46-.483q-0.411-.43-0.873-0.885a6.393,6.393,0,0,0-.979-0.785,5.223,5.223,0,0,0-1.168-.565,4.259,4.259,0,0,0-1.4-.218,9.006,9.006,0,0,0-3.6.71,8.557,8.557,0,0,0-2.824,1.954,9.067,9.067,0,0,0-1.852,2.93,10.275,10.275,0,0,0,0,7.294,9.058,9.058,0,0,0,1.852,2.937,8.642,8.642,0,0,0,2.825,1.962A8.932,8.932,0,0,0,888.3,515a3.713,3.713,0,0,0,1.337-.236,5.724,5.724,0,0,0,1.186-.615,8.385,8.385,0,0,0,1.024-.815q0.479-.446.875-0.836l0.293-.287,0.573,1.511c0.081,0.166.158,0.332,0.219,0.476a1.188,1.188,0,0,0,.162.287,0.456,0.456,0,0,0,.175.134,0.89,0.89,0,0,0,.347.048h2.9a0.768,0.768,0,0,0,.931-0.854V492.148a0.678,0.678,0,0,0-.079-0.326,0.921,0.921,0,0,0-.225-0.271A1.084,1.084,0,0,0,897.7,491.371Zm-4.1,14.57a4.751,4.751,0,0,1-.445,1.819,4.869,4.869,0,0,1-1.054,1.461,4.808,4.808,0,0,1-1.54.975,5.041,5.041,0,0,1-1.881.352,4.517,4.517,0,0,1-1.862-.378,4.415,4.415,0,0,1-1.438-1.025,4.511,4.511,0,0,1-.918-1.53,5.631,5.631,0,0,1,0-3.731,4.806,4.806,0,0,1,.914-1.561,4.321,4.321,0,0,1,3.3-1.467,4.843,4.843,0,0,1,1.948.392,4.911,4.911,0,0,1,2.6,2.623,4.776,4.776,0,0,1,.375,1.868v0.2Zm26.427-9.039-0.012-.01a0.5,0.5,0,0,0-.26-0.142,1.874,1.874,0,0,0-.332-0.039h-2.2a1.987,1.987,0,0,0-.4.031,0.28,0.28,0,0,0-.143.074,0.8,0.8,0,0,0-.151.25c-0.064.149-.144,0.344-0.241,0.583l-0.735,2.238-0.307-.433a10.593,10.593,0,0,0-.888-1.089,6.651,6.651,0,0,0-1.094-.948,5.58,5.58,0,0,0-1.332-.67,4.859,4.859,0,0,0-1.595-.253,9.478,9.478,0,0,0-3.665.712,9.154,9.154,0,0,0-4.972,4.89,9.067,9.067,0,0,0-.732,3.643,9.31,9.31,0,0,0,.33,2.489,9.212,9.212,0,0,0,4.289,5.522,9.312,9.312,0,0,0,2.242.922,9.536,9.536,0,0,0,2.508.324,3.671,3.671,0,0,0,1.322-.236,6,6,0,0,0,1.182-.6,7.754,7.754,0,0,0,1.006-.791q0.471-.441.868-0.83l0.289-.282,0.575,1.46c0.061,0.17.117,0.32,0.17,0.457a1.1,1.1,0,0,0,.159.286,0.511,0.511,0,0,0,.207.147,1.078,1.078,0,0,0,.4.058h2.911a1.745,1.745,0,0,0,.332-0.038,0.468,0.468,0,0,0,.248-0.132,0.553,0.553,0,0,0,.236-0.265,1.028,1.028,0,0,0,.07-0.375V497.524a0.9,0.9,0,0,0-.067-0.363A0.669,0.669,0,0,0,920.032,496.9Zm-5.192,10.726a4.631,4.631,0,0,1-1.04,1.527,5,5,0,0,1-3.5,1.393,4.527,4.527,0,0,1-1.862-.378A4.415,4.415,0,0,1,907,509.145a4.493,4.493,0,0,1-.917-1.53,5.614,5.614,0,0,1,0-3.731,4.8,4.8,0,0,1,.913-1.562,4.325,4.325,0,0,1,3.3-1.466,4.846,4.846,0,0,1,1.948.392,4.915,4.915,0,0,1,2.6,2.623A4.892,4.892,0,0,1,914.84,507.628Zm21.523-5.856,1.339-2.237a1,1,0,0,0,.187-0.756,0.849,0.849,0,0,0-.468-0.475c-0.466-.33-0.861-0.595-1.222-0.823a6.815,6.815,0,0,0-1.073-.55,5.946,5.946,0,0,0-1.137-.325,7.691,7.691,0,0,0-1.378-.112,2.618,2.618,0,0,0-1.206.26,3.948,3.948,0,0,0-.955.692,9.339,9.339,0,0,0-.841.951c-0.271.354-.562,0.7-0.864,1.026l-0.285.306-0.285-.7c-0.065-.16-0.131-0.331-0.2-0.51l-0.192-.494c-0.055-.135-0.09-0.222-0.109-0.259a3.163,3.163,0,0,1-.208-0.425,1.614,1.614,0,0,0-.165-0.312,0.675,0.675,0,0,0-.2-0.187,0.562,0.562,0,0,0-.3-0.061h-2.231a1.2,1.2,0,0,0-.653.2,0.822,0.822,0,0,0-.179.25,0.783,0.783,0,0,0-.085.358v16.213a0.748,0.748,0,0,0,.887.854h3.325a1.009,1.009,0,0,0,.716-0.2,0.919,0.919,0,0,0,.2-0.654V503.245l0.038-.063c0.215-.339.428-0.648,0.635-0.918a4.512,4.512,0,0,1,.708-0.74,3.035,3.035,0,0,1,.867-0.493,3.252,3.252,0,0,1,1.105-.175,3.9,3.9,0,0,1,1.612.32,4.928,4.928,0,0,1,1.333.924,1.148,1.148,0,0,0,.718.1A0.959,0.959,0,0,0,936.363,501.772Zm8.716-8.342a0.767,0.767,0,0,0,.063-0.282v-2.826a0.815,0.815,0,0,0-.22-0.66,1.046,1.046,0,0,0-.667-0.194h-3.428a0.933,0.933,0,0,0-.643.179,0.951,0.951,0,0,0-.185.675v2.826a0.764,0.764,0,0,0,.828.942h3.428A0.66,0.66,0,0,0,944.6,494a0.987,0.987,0,0,0,.287-0.246A1.339,1.339,0,0,0,945.079,493.43Zm-0.582,3.415a0.827,0.827,0,0,0-.286-0.061h-3.384a0.741,0.741,0,0,0-.619.234,0.982,0.982,0,0,0-.209.636v16.155a0.722,0.722,0,0,0,.828.854h3.384a1.021,1.021,0,0,0,.706-0.213,0.815,0.815,0,0,0,.225-0.641V497.654a0.623,0.623,0,0,0-.087-0.33,1.241,1.241,0,0,0-.25-0.292A1.086,1.086,0,0,0,944.5,496.845Zm19.228,2.319a9.331,9.331,0,0,0-2.99-1.958,9.527,9.527,0,0,0-3.672-.712,9.864,9.864,0,0,0-2.538.324,9.66,9.66,0,0,0-2.264.917,9.106,9.106,0,0,0-1.9,1.429,9.091,9.091,0,0,0-2.414,4.079,9.166,9.166,0,0,0-.337,2.5,9.072,9.072,0,0,0,.337,2.486,9.2,9.2,0,0,0,4.318,5.525,9.447,9.447,0,0,0,2.263.922,9.967,9.967,0,0,0,5.047,0,9.54,9.54,0,0,0,2.25-.922,9.328,9.328,0,0,0,1.9-1.437,9.193,9.193,0,0,0,1.466-1.867,9.345,9.345,0,0,0,.948-2.221,9.094,9.094,0,0,0,.338-2.486,9,9,0,0,0-.739-3.643A9.369,9.369,0,0,0,963.725,499.164Zm-2.575,8.447a4.5,4.5,0,0,1-.878,1.529,4.2,4.2,0,0,1-1.4,1.029,4.414,4.414,0,0,1-1.849.379,4.587,4.587,0,0,1-1.891-.378,4.344,4.344,0,0,1-1.432-1.026,4.6,4.6,0,0,1-.909-1.529,5.614,5.614,0,0,1,0-3.731,4.882,4.882,0,0,1,.9-1.56,4.3,4.3,0,0,1,1.433-1.073,4.45,4.45,0,0,1,1.895-.395,4.285,4.285,0,0,1,1.854.4,4.166,4.166,0,0,1,1.4,1.075,4.828,4.828,0,0,1,.876,1.561A5.9,5.9,0,0,1,961.15,507.611Z" transform="translate(-843 -482)"/>
</svg>
