<?xml version="1.0" encoding="utf-8"?>
<!-- Generator: Adobe Illustrator 22.1.0, SVG Export Plug-In . SVG Version: 6.00 Build 0)  -->
<svg version="1.1" id="Layer_1" xmlns="http://www.w3.org/2000/svg" xmlns:xlink="http://www.w3.org/1999/xlink" x="0px" y="0px"
	 viewBox="0 0 1209 672" style="enable-background:new 0 0 1209 672;" xml:space="preserve">
<style type="text/css">
	.st0{clip-path:url(#SVGID_2_);}
	.st1{fill:#5B62AD;}
	.st2{fill:#F6C5D1;}
	.st3{fill:#FED061;}
	.st4{fill:#CCAC6F;}
	.st5{fill:#1EAA59;}
	.st6{fill:#43CF67;}
	.st7{fill:#F26748;}
</style>
<g>
	<defs>
		<rect id="SVGID_1_" width="1209" height="672"/>
	</defs>
	<clipPath id="SVGID_2_">
		<use xlink:href="#SVGID_1_"  style="overflow:visible;"/>
	</clipPath>
	<g class="st0">
		<circle id="Ellipse_1_copy_8" class="st1" cx="-7.2" cy="449.2" r="18.8"/>
		<path id="Polygon_1" class="st2" d="M186.1,58.4L114.7,8.8l77.9-38.3L186.1,58.4z"/>
		<path id="Polygon_1_copy" class="st3" d="M1127.4,585.5l12.1,68.5l-65.3-23.7L1127.4,585.5z"/>
		<path id="Polygon_1_copy_4" class="st3" d="M94.7,608.1l65.2-24.1l-11.7,68.5L94.7,608.1z"/>
		<path id="Polygon_1_copy_2" class="st4" d="M310.5,738.6l-60.9,33.5l1.4-69.5L310.5,738.6z"/>
		<path id="Polygon_1_copy_3" class="st1" d="M1115.2,236.9l-60.9,33.5l1.4-69.5L1115.2,236.9z"/>
		<ellipse class="st5" cx="95.8" cy="260.7" rx="18.8" ry="18.9"/>
		<circle id="Ellipse_1_copy_3" class="st6" cx="1020.4" cy="760.9" r="18.8"/>
		<ellipse id="Ellipse_1_copy_7" class="st4" cx="759.1" cy="622.6" rx="18.8" ry="18.8"/>
		<circle id="Ellipse_1_copy" class="st2" cx="872.2" cy="39.6" r="18.8"/>
		<ellipse id="Ellipse_1_copy_2" class="st3" cx="455.1" cy="89.9" rx="18.8" ry="18.8"/>
		<ellipse id="Ellipse_1_copy_4" class="st2" cx="346.1" cy="659.9" rx="18.8" ry="18.8"/>
		<path class="st2" d="M1133.6,382.4c-9,7.1-16.6,18.7-16.5,30.6c0.1,13.5,13.1,15.8,23.9,16.2c6.9,0.3,13.9,0.1,20.8-0.6
			c6.6-0.6,16.4-3,11.5,6.9c-5.9,11.9-17.3,20.7-22.3,33.4c-11,27.9,36.8,28.5,52.6,25.8c5.6-1,14.8-5,20.1-2.3
			c6.9,3.5-1.7,10.4-5.1,13.5c-9.1,8-16.2,15.6-14.9,28.4c1.1,10.7,17.5,7.2,16.5-3.5c-0.6-5.7,8.1-10.8,11.6-14
			c3.8-3.3,6.9-7.3,9.2-11.8c4.3-9,2.5-19.7-6.1-25.5c-9.8-6.7-21.2-3.7-31.9-1.7c-6.9,1.3-13.9,2.2-20.9,1.6c-3-0.2-6-0.8-8.9-1.7
			c-3.9-1.2-5.8-1.2-5.2-4.8c0.8-5,7.9-12.5,11-16.6c3.7-4.8,7.7-9.4,10.2-15c3.9-8.6,3.2-19.6-4.3-26.1c-9.3-8-24-2.8-35-2.7
			c-3.6,0-7.2,0-10.8-0.3l-3.1-0.2c-2.1,0.4-2.6-0.1-1.6-1.3c-1.6-4.9,7.7-13.5,10.6-15.9C1153.3,388.2,1142,375.7,1133.6,382.4
			L1133.6,382.4L1133.6,382.4z"/>
		<path id="Shape_1_copy_2" class="st1" d="M721.9,71.5c8.8,2.4,19.9,1.8,27.5-4c8.6-6.6,3.9-16.2-0.9-23.5
			c-3.1-4.7-6.5-9.1-10.2-13.3c-3.5-4-9.7-9.3-1-10.9c10.5-1.9,21.5,1.3,32.1-1.6c23.1-6.3,0.8-37.9-8.4-46.9
			c-3.3-3.2-10.2-7.3-11-12c-1-6.2,7.5-4,11.1-3.2c9.4,2,17.7,3.1,25.3-4c6.4-5.9-3.7-15-10.1-9.1c-3.4,3.1-10.7-0.1-14.5-0.8
			c-3.9-0.9-8-1-12-0.3c-7.9,1.5-13.8,7.9-13.5,16.4c0.3,9.7,7.7,15.6,14.1,21.7c4.2,3.8,7.9,8.1,10.9,12.9c1.3,2.1,2.4,4.3,3.2,6.7
			c1.1,3.1,2,4.4-0.6,5.8c-3.6,1.9-11.8,0.9-15.9,0.8c-4.9-0.1-9.7-0.5-14.5,0.5c-7.4,1.6-14.1,7.4-14.7,15.5
			c-0.7,10,9.6,17.1,14.9,24.2c1.7,2.3,3.4,4.7,5,7.2l1.3,2.1c1.2,1.2,1.2,1.7-0.1,1.6c-2.4,3.5-12.3,1.5-15.2,0.8
			C716.3,55.8,713.6,69.2,721.9,71.5L721.9,71.5L721.9,71.5z"/>
		<path id="Shape_1_copy" class="st7" d="M160.9,120.5c-6,4.7-11.1,12.4-11.1,20.3c0,8.9,8.7,10.5,15.8,10.8
			c4.6,0.2,9.2,0.1,13.8-0.3c4.4-0.4,10.9-1.9,7.6,4.6c-4,7.9-11.6,13.7-14.9,22.1c-7.4,18.5,24.4,19,34.8,17.3
			c3.7-0.6,9.8-3.3,13.3-1.4c4.6,2.4-1.1,6.9-3.4,8.9c-6,5.3-10.8,10.3-10,18.8c0.7,7.1,11.6,4.8,11-2.3c-0.4-3.8,5.4-7.1,7.7-9.3
			c2.5-2.2,4.6-4.8,6.2-7.8c2.9-6,1.7-13.1-4-17c-6.5-4.5-14-2.5-21.2-1.2c-4.6,1-9.2,1.3-13.9,1c-2-0.2-4-0.5-5.9-1.1
			c-2.6-0.8-3.9-0.8-3.5-3.2c0.6-3.3,5.3-8.3,7.4-11c2.5-3.2,5.2-6.2,6.8-9.9c2.6-5.7,2.2-13-2.8-17.4c-6.2-5.3-15.9-1.9-23.2-1.9
			c-2.4,0-4.8,0-7.2-0.2l-2-0.2c-1.4,0.2-1.7,0-1-0.8c-1.1-3.3,5.1-9,7.1-10.5C173.9,124.4,166.5,116.1,160.9,120.5L160.9,120.5
			L160.9,120.5z"/>
		<path id="Shape_2_copy" class="st5" d="M1153.1,61.9c-3.9-4.6-8.2-10.7-9-16.8c-0.8-6,6.9-3.1,10.1-1.4c10,5.1,21.8,10.9,30.9,0.9
			c7.7-8.4,6.3-20,2.3-29.8c-2.3-5.8-6.9-12.3-5.8-18.7c1.2-7.3,8.2-5.4,13.2-3c7.2,3.6,12.3-7.7,5.1-11.2
			c-12.6-6.2-28.2-3.2-30.6,12.3c-1.2,7.6,1.9,14.7,5,21.5c2.5,5.6,7.6,16.1,1.2,21.1c-5.5,4.4-15.1-4.4-20.6-6.2
			c-5.4-1.7-12-2.1-17,1c-13.8,8.5-2.4,28.7,5.2,37.6C1148.2,75.2,1158.3,68,1153.1,61.9L1153.1,61.9L1153.1,61.9z"/>
	</g>
</g>
</svg>
